# xmcd
#
# Track frame offsets:
#	150
#	18980
#	34838
#	52794
#	74505
#	93484
#	108088
#	124625
#	149868
#	162909
#	183894
#	199691
#
# Disc length: 2934 seconds
#
# Revision: 1
# Processed by: cddbd v1.5.2PL0 Copyright (c) Steve Scherf et al.
# Submitted via: audiograbber 1.83.01
#
DISCID=a10b740c
DTITLE=Михаил Круг - Кольщик
DYEAR=2009
DGENRE=Шансон
TTITLE0=День как день
TTITLE1=Добрая, глупая,давняя
TTITLE2=Катя
TTITLE3=Кольщик
TTITLE4=Не спалила, любила
TTITLE5=Нишьяк, браток
TTITLE6=Девочка пай 2
TTITLE7=Прокурору зеленому - Слава
TTITLE8=Пусти меня, мама
TTITLE9=Тишина
TTITLE10=У каких ворот
TTITLE11=Это было вчера
EXTD=
EXTT0=
EXTT1=
EXTT2=
EXTT3=
EXTT4=
EXTT5=
EXTT6=
EXTT7=
EXTT8=
EXTT9=
EXTT10=
EXTT11=
PLAYORDER=
